<?xml version="1.0" encoding="UTF-8" standalone="no"?>
<!-- Generator: Adobe Illustrator 17.0.0, SVG Export Plug-In . SVG Version: 6.00 Build 0)  -->

<svg
   xmlns:dc="http://purl.org/dc/elements/1.1/"
   xmlns:cc="http://creativecommons.org/ns#"
   xmlns:rdf="http://www.w3.org/1999/02/22-rdf-syntax-ns#"
   xmlns:svg="http://www.w3.org/2000/svg"
   xmlns="http://www.w3.org/2000/svg"
   xmlns:sodipodi="http://sodipodi.sourceforge.net/DTD/sodipodi-0.dtd"
   xmlns:inkscape="http://www.inkscape.org/namespaces/inkscape"
   version="1.1"
   id="Warstwa_1"
   x="0px"
   y="0px"
   width="707.1px"
   height="200px"
   viewBox="0 0 707.1 200"
   enable-background="new 0 0 707.1 200"
   xml:space="preserve"
   sodipodi:docname="logo.svg"
   inkscape:version="0.92.4 (5da689c313, 2019-01-14)"><metadata
   id="metadata850"><rdf:RDF><cc:Work
       rdf:about=""><dc:format>image/svg+xml</dc:format><dc:type
         rdf:resource="http://purl.org/dc/dcmitype/StillImage" /></cc:Work></rdf:RDF></metadata><defs
   id="defs848" /><sodipodi:namedview
   pagecolor="#ffffff"
   bordercolor="#666666"
   borderopacity="1"
   objecttolerance="10"
   gridtolerance="10"
   guidetolerance="10"
   inkscape:pageopacity="0"
   inkscape:pageshadow="2"
   inkscape:window-width="1366"
   inkscape:window-height="705"
   id="namedview846"
   showgrid="false"
   inkscape:zoom="0.81700786"
   inkscape:cx="275.39146"
   inkscape:cy="-2.9485293"
   inkscape:window-x="-8"
   inkscape:window-y="-8"
   inkscape:window-maximized="1"
   inkscape:current-layer="Warstwa_1" />
<polygon
   points="0,150 0,50 86.6,0 173.2,50 173.2,150 86.6,200 "
   id="polygon815"
   fill="#61DAFB"
   style="fill:#2196f3;fill-opacity:1" />




<polygon
   fill-opacity="0"
   points="86.6,100 0,50 0,150 "
   id="polygon825" />



<text
   xml:space="preserve"
   style="font-style:normal;font-weight:normal;font-size:40px;line-height:1.25;font-family:sans-serif;letter-spacing:0px;word-spacing:0px;fill:#000000;fill-opacity:1;stroke:none"
   x="315.46872"
   y="88.785378"
   id="text2473"><tspan
     sodipodi:role="line"
     id="tspan2471"
     x="315.46872"
     y="125.27859"></tspan></text>
<g
   aria-label="ADMINPOS"
   transform="matrix(2.2743511,0,0,2.2743511,79.88718,-460.43604)"
   style="font-style:normal;font-weight:normal;font-size:40px;line-height:1.25;font-family:sans-serif;letter-spacing:0px;word-spacing:0px;fill:#000000;fill-opacity:1;stroke:none"
   id="flowRoot2475"><path
     d="m 74.412109,262.45806 h -4.316406 l -3.085937,-8.28125 H 54.412109 l -2.910156,8.28125 h -4.316406 l 11.523437,-30.25391 h 4.179688 z m -8.613281,-11.69922 -4.570312,-12.57813 q -0.214844,-0.60547 -0.46875,-2.10937 h -0.09766 q -0.214843,1.36719 -0.488281,2.10937 l -4.53125,12.57813 z"
     style="font-style:normal;font-variant:normal;font-weight:normal;font-stretch:normal;font-family:'Microsoft YaHei UI';-inkscape-font-specification:'Microsoft YaHei UI';fill:#f7f7f7;fill-opacity:1"
     id="path2483"
     inkscape:connector-curvature="0" /><path
     d="m 78.767578,262.45806 v -30.25391 h 8.632813 q 6.875,0 11.425781,4.00391 4.570308,4.0039 4.570308,10.74218 0,7.03125 -4.570308,11.26954 -4.550781,4.23828 -11.738281,4.23828 z m 3.90625,-26.77735 v 23.32032 h 4.394531 q 5.761719,0 8.984375,-3.14454 3.242188,-3.14453 3.242188,-8.80859 0,-5.66406 -3.320313,-8.51562 -3.320312,-2.85157 -8.730468,-2.85157 z"
     style="font-style:normal;font-variant:normal;font-weight:normal;font-stretch:normal;font-family:'Microsoft YaHei UI';-inkscape-font-specification:'Microsoft YaHei UI';fill:#f7f7f7;fill-opacity:1"
     id="path2485"
     inkscape:connector-curvature="0" /><path
     d="m 136.59961,262.45806 v -20.03907 q 0,-2.48046 0.29297,-5.95703 h -0.0977 q -0.50781,2.1875 -0.89844,3.04688 l -9.98046,22.94922 h -2.16797 l -9.96094,-22.77344 q -0.35156,-0.78125 -0.89844,-3.22266 h -0.11719 q 0.19532,2.10938 0.19532,6.13282 v 19.86328 h -3.73047 v -30.25391 h 5.29297 l 8.92578,20.74219 q 1.01562,2.38281 1.34765,3.71094 h 0.13672 q 1.01563,-2.79297 1.42578,-3.78907 l 9.08204,-20.66406 h 5.03906 v 30.25391 z"
     style="font-style:normal;font-variant:normal;font-weight:normal;font-stretch:normal;font-family:'Microsoft YaHei UI';-inkscape-font-specification:'Microsoft YaHei UI';fill:#f7f7f7;fill-opacity:1"
     id="path2487"
     inkscape:connector-curvature="0" /><path
     d="m 152.20508,232.20415 v 30.25391 h -3.90625 v -30.25391 z"
     style="font-style:normal;font-variant:normal;font-weight:normal;font-stretch:normal;font-family:'Microsoft YaHei UI';-inkscape-font-specification:'Microsoft YaHei UI';fill:#f7f7f7;fill-opacity:1"
     id="path2489"
     inkscape:connector-curvature="0" /><path
     d="m 184.80273,262.45806 h -4.6289 L 164.95898,238.9229 q -0.64453,-0.99609 -1.03515,-1.97266 h -0.11719 q 0.15625,1.01563 0.15625,4.23829 v 21.26953 h -3.86719 v -30.25391 h 4.90235 l 14.80468,23.125 q 1.05469,1.64063 1.25,2.08984 h 0.0781 q -0.19531,-1.28906 -0.19531,-4.41406 v -20.80078 h 3.86718 z"
     style="font-style:normal;font-variant:normal;font-weight:normal;font-stretch:normal;font-family:'Microsoft YaHei UI';-inkscape-font-specification:'Microsoft YaHei UI';fill:#f7f7f7;fill-opacity:1"
     id="path2491"
     inkscape:connector-curvature="0" /><path
     d="m 196.50195,251.14946 v 11.3086 h -3.90625 v -30.25391 h 8.59375 q 4.90235,0 7.59766,2.36328 2.71484,2.36328 2.71484,6.75781 0,4.45313 -3.16406,7.22657 -3.16406,2.7539 -7.91016,2.59765 z m 0,-15.50781 v 12.07031 h 3.61328 q 3.57422,0 5.42969,-1.60156 1.85547,-1.62109 1.85547,-4.62891 0,-5.83984 -6.91406,-5.83984 z"
     style="font-style:normal;font-variant:normal;font-weight:normal;font-stretch:normal;font-family:'Microsoft YaHei UI';-inkscape-font-specification:'Microsoft YaHei UI';fill:#2196f3;fill-opacity:1"
     id="path2493"
     inkscape:connector-curvature="0" /><path
     d="m 215.0957,247.69243 q 0,-7.32422 3.96485,-11.66015 3.96484,-4.33594 10.74218,-4.33594 6.3086,0 10.15625,4.23828 3.84766,4.23828 3.84766,11.03516 0,7.36328 -3.94531,11.67968 -3.94531,4.31641 -10.54688,4.31641 -6.44531,0 -10.33203,-4.23828 -3.88672,-4.23828 -3.88672,-11.03516 z m 4.10157,-0.3125 q 0,5.48828 2.79296,8.8086 2.8125,3.30078 7.32422,3.30078 4.84375,0 7.59766,-3.16407 2.77344,-3.18359 2.77344,-8.88671 0,-5.85938 -2.71485,-9.04297 -2.69531,-3.1836 -7.40234,-3.1836 -4.62891,0 -7.5,3.35938 -2.87109,3.35937 -2.87109,8.80859 z"
     style="font-style:normal;font-variant:normal;font-weight:normal;font-stretch:normal;font-family:'Microsoft YaHei UI';-inkscape-font-specification:'Microsoft YaHei UI';fill:#2196f3;fill-opacity:1"
     id="path2495"
     inkscape:connector-curvature="0" /><path
     d="m 248.2207,256.77446 q 1.38672,1.21094 3.71094,1.99219 2.32422,0.78125 4.41406,0.78125 6.36719,0 6.36719,-4.53125 0,-1.26953 -0.68359,-2.28516 -0.6836,-1.01562 -1.875,-1.79687 -1.19141,-0.78125 -4.47266,-2.40234 -4.55078,-2.26563 -5.99609,-4.19922 -1.44532,-1.95313 -1.44532,-4.45313 0,-3.76953 3.02735,-5.97656 3.02734,-2.20703 7.63672,-2.20703 4.51172,0 6.62109,1.09375 v 4.25781 q -2.73437,-1.89453 -6.91406,-1.89453 -2.77344,0 -4.53125,1.17187 -1.73828,1.15235 -1.73828,3.22266 0,1.83594 1.21093,2.98828 1.21094,1.15235 5.25391,3.14453 4.45313,2.12891 6.23047,4.25782 1.77734,2.1289 1.77734,4.78515 0,3.98438 -2.89062,6.11328 -2.89063,2.12891 -8.02735,2.12891 -1.79687,0 -4.19921,-0.50781 -2.38282,-0.48828 -3.47657,-1.23047 z"
     style="font-style:normal;font-variant:normal;font-weight:normal;font-stretch:normal;font-family:'Microsoft YaHei UI';-inkscape-font-specification:'Microsoft YaHei UI';fill:#2196f3;fill-opacity:1"
     id="path2497"
     inkscape:connector-curvature="0" /></g></svg>